<?xml version="1.0" standalone="no"?>
<!DOCTYPE svg PUBLIC "-//W3C//DTD SVG 20010904//EN"
 "http://www.w3.org/TR/2001/REC-SVG-20010904/DTD/svg10.dtd">
<svg version="1.0" xmlns="http://www.w3.org/2000/svg"
 width="500.000000pt" height="500.000000pt" viewBox="0 0 500.000000 500.000000"
 preserveAspectRatio="xMidYMid meet">
<metadata>
Created by potrace 1.14, written by Peter Selinger 2001-2017
</metadata>
<g transform="translate(0.000000,500.000000) scale(0.100000,-0.100000)"
fill="#000000" stroke="none">
<path d="M3448 3895 c-2 -2 -41 -5 -88 -9 -423 -30 -630 -210 -632 -550 -1
-119 15 -192 65 -296 33 -68 58 -101 122 -165 118 -118 270 -210 530 -319 61
-26 119 -51 130 -56 11 -5 58 -25 105 -43 475 -193 678 -389 695 -671 24 -404
-310 -655 -850 -640 -71 2 -139 5 -150 7 -11 3 -40 8 -65 12 -25 3 -76 16
-114 27 -297 86 -472 291 -490 572 -2 37 -7 71 -11 74 -4 4 -4 -85 -1 -198 7
-235 2 -222 107 -307 105 -85 271 -161 419 -192 96 -20 104 -21 185 -28 418
-36 744 57 912 258 189 226 173 600 -34 819 -136 145 -330 253 -754 420 -150
60 -343 158 -437 222 -82 57 -178 155 -218 223 -50 85 -73 179 -72 293 1 170
55 283 175 369 62 44 193 99 261 109 20 3 44 7 51 10 49 17 323 24 446 12 102
-11 254 -52 330 -90 199 -99 314 -274 324 -493 1 -33 6 -64 10 -68 7 -7 7 81
-3 290 -4 96 -17 118 -112 197 -125 103 -333 182 -534 202 -56 6 -298 13 -302
9z"/>
<path d="M553 3864 c4 -4 20 -8 36 -9 62 -3 57 96 57 -1354 -1 -873 -4 -1333
-11 -1340 -5 -5 -25 -12 -43 -14 -72 -11 -40 -17 91 -17 75 0 137 4 137 8 0 5
-14 8 -32 7 -66 -4 -63 -41 -63 700 l1 670 224 0 224 0 331 -447 c181 -245
391 -529 465 -629 74 -100 155 -211 179 -246 l45 -63 88 0 c53 0 87 4 83 9 -3
6 -15 8 -26 6 -53 -10 -61 0 -484 575 -47 63 -197 268 -335 455 -138 187 -248
340 -243 342 4 1 73 4 153 7 80 2 156 7 170 10 13 3 42 8 63 11 204 31 404
161 484 317 97 186 100 458 7 648 -84 171 -292 306 -519 336 -22 3 -51 8 -65
11 -37 9 -1025 15 -1017 7z m997 -50 c393 -58 586 -278 575 -653 -9 -275 -141
-457 -396 -544 -41 -14 -94 -28 -119 -32 -25 -4 -54 -10 -65 -13 -11 -3 -200
-7 -420 -9 l-400 -5 1 614 c1 337 2 623 3 635 l1 22 368 -1 c238 -1 397 -6
452 -14z"/>
</g>
</svg>
